<svg width="404" height="166" viewBox="0 0 404 166" fill="none" xmlns="http://www.w3.org/2000/svg">
<g clip-path="url(#clip0_1941_2549)">
<path fill-rule="evenodd" clip-rule="evenodd" d="M16.0365 16.4102C38.4939 39.3924 46.5035 43.1301 76.061 44.43L100.224 45.4929V131.281V217.073H122.527H144.831V130.992V44.9116H186.961C210.132 44.9116 229.09 44.0383 229.09 42.9729C229.09 34.9961 207.572 12.8297 193.156 5.95577C180.832 0.0798453 180.279 0.047412 90.3826 0.0249562L0 0L16.0365 16.4102ZM365.391 5.18729C347.362 13.3936 339.474 23.3914 308.95 76.7114C293.04 104.507 279.435 127.244 278.719 127.239C278.002 127.232 268.112 110.952 256.744 91.0607L236.071 54.8919H210.199H184.324L187.501 60.7154C206.462 95.4695 277.492 217.073 278.83 217.073C279.797 217.073 307.111 170.759 339.529 114.15C371.949 57.5442 400.079 8.70037 402.044 5.61395C405.6 0.0199604 405.561 7.91927e-06 391.078 0.0548998C381.869 0.089831 372.457 1.96863 365.391 5.18729Z" fill="url(#paint0_linear_1941_2549)"/>
</g>
<defs>
<linearGradient id="paint0_linear_1941_2549" x1="404" y1="-2.513e-05" x2="-28.7991" y2="55.0799" gradientUnits="userSpaceOnUse">
<stop stop-color="#B5A9FF"/>
<stop offset="1" stop-color="#6E81FE"/>
</linearGradient>
<clipPath id="clip0_1941_2549">
<rect width="404" height="166" fill="white"/>
</clipPath>
</defs>
</svg>
